<svg xmlns="http://www.w3.org/2000/svg" xmlns:xlink="http://www.w3.org/1999/xlink" width="500" zoomAndPan="magnify" viewBox="0 0 375 374.999991" height="500" preserveAspectRatio="xMidYMid meet" version="1.0"><defs><g/></defs><g fill="#ffffff" fill-opacity="1"><g transform="translate(138.935532, 189.024993)"><g><path d="M 1.328125 0 L 1.328125 -30.0625 L 7.3125 -30.0625 L 7.3125 -19.3125 L 10.15625 -19.3125 L 10.15625 -30.0625 L 16.140625 -30.0625 L 16.140625 0 L 10.15625 0 L 10.15625 -13.65625 L 7.3125 -13.65625 L 7.3125 0 Z M 1.328125 0 "/></g></g></g><g fill="#ffffff" fill-opacity="1"><g transform="translate(156.396583, 189.024993)"><g><path d="M 0.734375 0.390625 L 3.671875 0.390625 C 4.097656 0.390625 4.3125 0.210938 4.3125 -0.140625 C 4.3125 -0.304688 4.296875 -0.4375 4.265625 -0.53125 L 0.28125 -25.625 L 6.125 -25.625 L 7.28125 -13.125 L 7.84375 -6.75 L 8.5 -13.125 L 9.875 -25.625 L 15.75 -25.625 L 10.984375 1.328125 C 10.828125 2.328125 10.492188 3.066406 9.984375 3.546875 C 9.484375 4.023438 8.695312 4.265625 7.625 4.265625 L 0.734375 4.265625 Z M 0.734375 0.390625 "/></g></g></g><g fill="#ffffff" fill-opacity="1"><g transform="translate(172.527945, 189.024993)"><g><path d="M 11.125 0.28125 C 9.445312 0.28125 8.25 -0.722656 7.53125 -2.734375 L 7.53125 0 L 1.21875 0 L 1.21875 -30.234375 L 7.53125 -30.234375 L 7.53125 -24.390625 C 8.507812 -25.398438 9.648438 -25.90625 10.953125 -25.90625 C 12.941406 -25.90625 14.363281 -25.3125 15.21875 -24.125 C 16.082031 -22.945312 16.515625 -21.253906 16.515625 -19.046875 L 16.515625 -6.6875 C 16.515625 -4.582031 16.070312 -2.894531 15.1875 -1.625 C 14.300781 -0.351562 12.945312 0.28125 11.125 0.28125 Z M 9.0625 -4.484375 C 9.476562 -4.484375 9.773438 -4.613281 9.953125 -4.875 C 10.128906 -5.144531 10.234375 -5.484375 10.265625 -5.890625 C 10.304688 -6.304688 10.328125 -6.945312 10.328125 -7.8125 L 10.328125 -18.484375 C 10.328125 -19.390625 10.242188 -20.0625 10.078125 -20.5 C 9.910156 -20.945312 9.5625 -21.171875 9.03125 -21.171875 C 8.445312 -21.171875 8.050781 -20.945312 7.84375 -20.5 C 7.632812 -20.0625 7.53125 -19.410156 7.53125 -18.546875 L 7.53125 -7.8125 C 7.53125 -6.6875 7.617188 -5.847656 7.796875 -5.296875 C 7.984375 -4.753906 8.40625 -4.484375 9.0625 -4.484375 Z M 9.0625 -4.484375 "/></g></g></g><g fill="#ffffff" fill-opacity="1"><g transform="translate(190.058988, 189.024993)"><g><path d="M 1.21875 -25.625 L 7.34375 -25.625 L 7.34375 -22.78125 C 7.65625 -23.789062 8.1875 -24.566406 8.9375 -25.109375 C 9.695312 -25.660156 10.640625 -25.9375 11.765625 -25.9375 L 11.765625 -20.828125 C 10.898438 -20.828125 9.945312 -20.703125 8.90625 -20.453125 C 7.863281 -20.210938 7.34375 -19.925781 7.34375 -19.59375 L 7.34375 0 L 1.21875 0 Z M 1.21875 -25.625 "/></g></g></g><g fill="#ffffff" fill-opacity="1"><g transform="translate(202.096272, 189.024993)"><g><path d="M 1.1875 -27.328125 L 1.1875 -31.609375 L 7.3125 -31.609375 L 7.3125 -27.328125 Z M 1.1875 0 L 1.1875 -25.625 L 7.3125 -25.625 L 7.3125 0 Z M 1.1875 0 "/></g></g></g><g fill="#ffffff" fill-opacity="1"><g transform="translate(210.599346, 189.024993)"><g><path d="M 6.265625 0.28125 C 4.773438 0.28125 3.648438 -0.0703125 2.890625 -0.78125 C 2.128906 -1.5 1.625 -2.445312 1.375 -3.625 C 1.132812 -4.800781 1.015625 -6.3125 1.015625 -8.15625 L 1.078125 -19.703125 C 1.078125 -21.523438 1.535156 -23.015625 2.453125 -24.171875 C 3.378906 -25.328125 4.6875 -25.90625 6.375 -25.90625 C 8.03125 -25.90625 9.265625 -25.351562 10.078125 -24.25 L 10.078125 -30.234375 L 16.203125 -30.234375 L 16.203125 0 L 10.078125 0 L 10.078125 -2.734375 C 9.734375 -1.722656 9.257812 -0.96875 8.65625 -0.46875 C 8.0625 0.03125 7.265625 0.28125 6.265625 0.28125 Z M 8.609375 -4.515625 C 9.210938 -4.515625 9.609375 -4.8125 9.796875 -5.40625 C 9.984375 -6 10.078125 -6.800781 10.078125 -7.8125 L 10.078125 -18.515625 C 10.078125 -19.265625 9.972656 -19.894531 9.765625 -20.40625 C 9.554688 -20.914062 9.179688 -21.171875 8.640625 -21.171875 C 8.035156 -21.171875 7.632812 -20.929688 7.4375 -20.453125 C 7.238281 -19.972656 7.140625 -19.328125 7.140625 -18.515625 L 7.140625 -7.734375 C 7.140625 -5.585938 7.628906 -4.515625 8.609375 -4.515625 Z M 8.609375 -4.515625 "/></g></g></g><g fill="#ffffff" fill-opacity="1"><g transform="translate(228.025412, 189.024993)"><g><path d="M 0.9375 0 L 0.9375 -5.109375 L 7.0625 -5.109375 L 7.0625 0 Z M 0.9375 0 "/></g></g></g><g fill="#ffffff" fill-opacity="1"><g transform="translate(172.054827, 198.774991)"><g><path d="M 4.734375 0 L 3.453125 -1.796875 C 3.304688 -1.785156 3.160156 -1.78125 3.015625 -1.78125 L 1.5 -1.78125 L 1.5 0 L 0.90625 0 L 0.90625 -5.59375 L 3.015625 -5.59375 C 3.722656 -5.59375 4.28125 -5.421875 4.6875 -5.078125 C 5.09375 -4.742188 5.296875 -4.28125 5.296875 -3.6875 C 5.296875 -3.25 5.179688 -2.878906 4.953125 -2.578125 C 4.734375 -2.273438 4.421875 -2.054688 4.015625 -1.921875 L 5.390625 0 Z M 2.984375 -2.28125 C 3.546875 -2.28125 3.972656 -2.398438 4.265625 -2.640625 C 4.554688 -2.890625 4.703125 -3.238281 4.703125 -3.6875 C 4.703125 -4.132812 4.554688 -4.476562 4.265625 -4.71875 C 3.972656 -4.96875 3.546875 -5.09375 2.984375 -5.09375 L 1.5 -5.09375 L 1.5 -2.28125 Z M 2.984375 -2.28125 "/></g></g></g><g fill="#ffffff" fill-opacity="1"><g transform="translate(179.038874, 198.774991)"><g><path d="M 4.453125 -1.921875 L 0.9375 -1.921875 C 0.96875 -1.484375 1.132812 -1.128906 1.4375 -0.859375 C 1.738281 -0.597656 2.125 -0.46875 2.59375 -0.46875 C 2.851562 -0.46875 3.09375 -0.515625 3.3125 -0.609375 C 3.53125 -0.703125 3.71875 -0.835938 3.875 -1.015625 L 4.203125 -0.640625 C 4.015625 -0.421875 3.78125 -0.25 3.5 -0.125 C 3.21875 -0.0078125 2.910156 0.046875 2.578125 0.046875 C 2.140625 0.046875 1.753906 -0.046875 1.421875 -0.234375 C 1.085938 -0.421875 0.828125 -0.675781 0.640625 -1 C 0.460938 -1.320312 0.375 -1.691406 0.375 -2.109375 C 0.375 -2.515625 0.460938 -2.878906 0.640625 -3.203125 C 0.816406 -3.535156 1.0625 -3.789062 1.375 -3.96875 C 1.6875 -4.144531 2.035156 -4.234375 2.421875 -4.234375 C 2.816406 -4.234375 3.164062 -4.144531 3.46875 -3.96875 C 3.78125 -3.789062 4.023438 -3.539062 4.203125 -3.21875 C 4.378906 -2.894531 4.46875 -2.523438 4.46875 -2.109375 Z M 2.421875 -3.75 C 2.015625 -3.75 1.671875 -3.617188 1.390625 -3.359375 C 1.117188 -3.097656 0.96875 -2.765625 0.9375 -2.359375 L 3.921875 -2.359375 C 3.878906 -2.765625 3.722656 -3.097656 3.453125 -3.359375 C 3.179688 -3.617188 2.835938 -3.75 2.421875 -3.75 Z M 2.421875 -3.75 "/></g></g></g><g fill="#ffffff" fill-opacity="1"><g transform="translate(184.950919, 198.774991)"><g><path d="M 2.265625 -4.234375 C 2.816406 -4.234375 3.238281 -4.097656 3.53125 -3.828125 C 3.820312 -3.554688 3.96875 -3.148438 3.96875 -2.609375 L 3.96875 0 L 3.421875 0 L 3.421875 -0.65625 C 3.296875 -0.4375 3.109375 -0.265625 2.859375 -0.140625 C 2.609375 -0.015625 2.3125 0.046875 1.96875 0.046875 C 1.5 0.046875 1.125 -0.0625 0.84375 -0.28125 C 0.570312 -0.507812 0.4375 -0.8125 0.4375 -1.1875 C 0.4375 -1.539062 0.566406 -1.828125 0.828125 -2.046875 C 1.085938 -2.265625 1.5 -2.375 2.0625 -2.375 L 3.40625 -2.375 L 3.40625 -2.625 C 3.40625 -2.988281 3.300781 -3.265625 3.09375 -3.453125 C 2.894531 -3.648438 2.597656 -3.75 2.203125 -3.75 C 1.941406 -3.75 1.6875 -3.703125 1.4375 -3.609375 C 1.195312 -3.523438 0.988281 -3.40625 0.8125 -3.25 L 0.546875 -3.671875 C 0.765625 -3.847656 1.019531 -3.984375 1.3125 -4.078125 C 1.613281 -4.179688 1.929688 -4.234375 2.265625 -4.234375 Z M 2.0625 -0.40625 C 2.382812 -0.40625 2.660156 -0.476562 2.890625 -0.625 C 3.117188 -0.769531 3.289062 -0.984375 3.40625 -1.265625 L 3.40625 -1.953125 L 2.078125 -1.953125 C 1.359375 -1.953125 1 -1.703125 1 -1.203125 C 1 -0.953125 1.09375 -0.753906 1.28125 -0.609375 C 1.46875 -0.472656 1.726562 -0.40625 2.0625 -0.40625 Z M 2.0625 -0.40625 "/></g></g></g><g fill="#ffffff" fill-opacity="1"><g transform="translate(190.87096, 198.774991)"><g><path d="M 0.796875 -5.9375 L 1.359375 -5.9375 L 1.359375 0 L 0.796875 0 Z M 0.796875 -5.9375 "/></g></g></g><g fill="#ffffff" fill-opacity="1"><g transform="translate(194.238984, 198.774991)"><g><path d="M 3.015625 -0.25 C 2.898438 -0.15625 2.765625 -0.0820312 2.609375 -0.03125 C 2.453125 0.0195312 2.289062 0.046875 2.125 0.046875 C 1.726562 0.046875 1.421875 -0.0546875 1.203125 -0.265625 C 0.992188 -0.484375 0.890625 -0.789062 0.890625 -1.1875 L 0.890625 -3.734375 L 0.140625 -3.734375 L 0.140625 -4.203125 L 0.890625 -4.203125 L 0.890625 -5.125 L 1.453125 -5.125 L 1.453125 -4.203125 L 2.734375 -4.203125 L 2.734375 -3.734375 L 1.453125 -3.734375 L 1.453125 -1.21875 C 1.453125 -0.96875 1.515625 -0.773438 1.640625 -0.640625 C 1.765625 -0.515625 1.945312 -0.453125 2.1875 -0.453125 C 2.300781 -0.453125 2.410156 -0.46875 2.515625 -0.5 C 2.628906 -0.539062 2.726562 -0.59375 2.8125 -0.65625 Z M 3.015625 -0.25 "/></g></g></g><g fill="#ffffff" fill-opacity="1"><g transform="translate(198.60702, 198.774991)"><g><path d="M 4.328125 -4.203125 L 2.21875 0.5 C 2.050781 0.894531 1.851562 1.175781 1.625 1.34375 C 1.40625 1.507812 1.140625 1.59375 0.828125 1.59375 C 0.617188 1.59375 0.425781 1.5625 0.25 1.5 C 0.0703125 1.4375 -0.078125 1.335938 -0.203125 1.203125 L 0.0625 0.78125 C 0.28125 1 0.535156 1.109375 0.828125 1.109375 C 1.023438 1.109375 1.191406 1.050781 1.328125 0.9375 C 1.460938 0.832031 1.585938 0.65625 1.703125 0.40625 L 1.890625 -0.015625 L 0.015625 -4.203125 L 0.59375 -4.203125 L 2.1875 -0.625 L 3.765625 -4.203125 Z M 4.328125 -4.203125 "/></g></g></g></svg>