<svg xmlns="http://www.w3.org/2000/svg" xmlns:xlink="http://www.w3.org/1999/xlink" viewBox="0,0,256,256" width="24px" height="24px" fill-rule="nonzero"><g fill="none" fill-rule="nonzero" stroke="none" stroke-width="1" stroke-linecap="butt" stroke-linejoin="miter" stroke-miterlimit="10" stroke-dasharray="" stroke-dashoffset="0" font-family="none" font-weight="none" font-size="none" text-anchor="none" style="mix-blend-mode: normal"><g transform="scale(10.66667,10.66667)"><rect x="5" y="13.226" width="8.33" height="7.774" fill="#ffffff"></rect><path d="M21,10.65v9.35c0,0.55 -0.45,1 -1,1h-8c-0.55,0 -1,-0.45 -1,-1v-4c0,-0.55 -0.45,-1 -1,-1h-2c-0.55,0 -1,0.45 -1,1v4c0,0.55 -0.45,1 -1,1h-2c-0.55,0 -1,-0.45 -1,-1v-9.35c0,-0.57 0.24,-1.12 0.67,-1.5l7,-6.22c0.76,-0.67 1.9,-0.67 2.66,0l7,6.22c0.43,0.38 0.67,0.93 0.67,1.5z" fill="#000000"></path><path d="M18,14v2c0,0.55 -0.45,1 -1,1h-2c-0.55,0 -1,-0.45 -1,-1v-2c0,-0.55 0.45,-1 1,-1h2c0.55,0 1,0.45 1,1z" fill="#ffffff"></path></g></g></svg>