<svg xmlns="http://www.w3.org/2000/svg" xmlns:xlink="http://www.w3.org/1999/xlink" width="500" zoomAndPan="magnify" viewBox="0 0 375 374.999991" height="500" preserveAspectRatio="xMidYMid meet" version="1.0"><defs><g/></defs><g fill="#000000" fill-opacity="1"><g transform="translate(94.032229, 176.564319)"><g><path d="M 2.5625 0 L 2.5625 -57.859375 L 14.078125 -57.859375 L 14.078125 -37.1875 L 19.53125 -37.1875 L 19.53125 -57.859375 L 31.046875 -57.859375 L 31.046875 0 L 19.53125 0 L 19.53125 -26.265625 L 14.078125 -26.265625 L 14.078125 0 Z M 2.5625 0 "/></g></g></g><g fill="#000000" fill-opacity="1"><g transform="translate(127.645963, 176.564319)"><g><path d="M 1.421875 0.734375 L 7.078125 0.734375 C 7.878906 0.734375 8.28125 0.398438 8.28125 -0.265625 C 8.28125 -0.578125 8.257812 -0.828125 8.21875 -1.015625 L 0.53125 -49.3125 L 11.78125 -49.3125 L 14.015625 -25.265625 L 15.09375 -13 L 16.375 -25.265625 L 19 -49.3125 L 30.3125 -49.3125 L 21.15625 2.5625 C 20.832031 4.488281 20.1875 5.910156 19.21875 6.828125 C 18.257812 7.753906 16.75 8.21875 14.6875 8.21875 L 1.421875 8.21875 Z M 1.421875 0.734375 "/></g></g></g><g fill="#000000" fill-opacity="1"><g transform="translate(158.699943, 176.564319)"><g><path d="M 21.421875 0.53125 C 18.191406 0.53125 15.878906 -1.394531 14.484375 -5.25 L 14.484375 0 L 2.359375 0 L 2.359375 -58.203125 L 14.484375 -58.203125 L 14.484375 -46.953125 C 16.367188 -48.878906 18.566406 -49.84375 21.078125 -49.84375 C 24.898438 -49.84375 27.640625 -48.707031 29.296875 -46.4375 C 30.960938 -44.175781 31.796875 -40.910156 31.796875 -36.640625 L 31.796875 -12.859375 C 31.796875 -8.816406 30.941406 -5.570312 29.234375 -3.125 C 27.523438 -0.6875 24.921875 0.53125 21.421875 0.53125 Z M 17.453125 -8.625 C 18.253906 -8.625 18.820312 -8.878906 19.15625 -9.390625 C 19.5 -9.910156 19.703125 -10.5625 19.765625 -11.34375 C 19.835938 -12.132812 19.875 -13.359375 19.875 -15.015625 L 19.875 -35.5625 C 19.875 -37.3125 19.710938 -38.613281 19.390625 -39.46875 C 19.078125 -40.320312 18.40625 -40.75 17.375 -40.75 C 16.25 -40.75 15.484375 -40.320312 15.078125 -39.46875 C 14.679688 -38.613281 14.484375 -37.359375 14.484375 -35.703125 L 14.484375 -15.015625 C 14.484375 -12.859375 14.660156 -11.253906 15.015625 -10.203125 C 15.378906 -9.148438 16.191406 -8.625 17.453125 -8.625 Z M 17.453125 -8.625 "/></g></g></g><g fill="#000000" fill-opacity="1"><g transform="translate(192.448405, 176.564319)"><g><path d="M 2.359375 -49.3125 L 14.140625 -49.3125 L 14.140625 -43.84375 C 14.722656 -45.78125 15.742188 -47.273438 17.203125 -48.328125 C 18.671875 -49.378906 20.476562 -49.90625 22.625 -49.90625 L 22.625 -40.078125 C 20.96875 -40.078125 19.140625 -39.84375 17.140625 -39.375 C 15.140625 -38.90625 14.140625 -38.351562 14.140625 -37.71875 L 14.140625 0 L 2.359375 0 Z M 2.359375 -49.3125 "/></g></g></g><g fill="#000000" fill-opacity="1"><g transform="translate(215.621008, 176.564319)"><g><path d="M 2.296875 -52.609375 L 2.296875 -60.828125 L 14.078125 -60.828125 L 14.078125 -52.609375 Z M 2.296875 0 L 2.296875 -49.3125 L 14.078125 -49.3125 L 14.078125 0 Z M 2.296875 0 "/></g></g></g><g fill="#000000" fill-opacity="1"><g transform="translate(231.990018, 176.564319)"><g><path d="M 12.0625 0.53125 C 9.1875 0.53125 7.019531 -0.148438 5.5625 -1.515625 C 4.101562 -2.878906 3.132812 -4.695312 2.65625 -6.96875 C 2.1875 -9.238281 1.953125 -12.144531 1.953125 -15.6875 L 2.09375 -37.921875 C 2.09375 -41.421875 2.976562 -44.28125 4.75 -46.5 C 6.519531 -48.726562 9.023438 -49.84375 12.265625 -49.84375 C 15.453125 -49.84375 17.832031 -48.789062 19.40625 -46.6875 L 19.40625 -58.203125 L 31.1875 -58.203125 L 31.1875 0 L 19.40625 0 L 19.40625 -5.25 C 18.726562 -3.320312 17.816406 -1.875 16.671875 -0.90625 C 15.523438 0.0507812 13.988281 0.53125 12.0625 0.53125 Z M 16.578125 -8.6875 C 17.742188 -8.6875 18.503906 -9.257812 18.859375 -10.40625 C 19.222656 -11.550781 19.40625 -13.085938 19.40625 -15.015625 L 19.40625 -35.640625 C 19.40625 -37.066406 19.203125 -38.273438 18.796875 -39.265625 C 18.390625 -40.253906 17.671875 -40.75 16.640625 -40.75 C 15.472656 -40.75 14.695312 -40.285156 14.3125 -39.359375 C 13.925781 -38.441406 13.734375 -37.203125 13.734375 -35.640625 L 13.734375 -14.890625 C 13.734375 -10.753906 14.679688 -8.6875 16.578125 -8.6875 Z M 16.578125 -8.6875 "/></g></g></g><g fill="#000000" fill-opacity="1"><g transform="translate(265.536389, 176.564319)"><g><path d="M 1.8125 0 L 1.8125 -9.828125 L 13.609375 -9.828125 L 13.609375 0 Z M 1.8125 0 "/></g></g></g><g fill="#000000" fill-opacity="1"><g transform="translate(156.617953, 201.649981)"><g><path d="M 9.46875 0 L 6.90625 -3.59375 C 6.625 -3.5625 6.328125 -3.546875 6.015625 -3.546875 L 3.015625 -3.546875 L 3.015625 0 L 1.828125 0 L 1.828125 -11.203125 L 6.015625 -11.203125 C 7.441406 -11.203125 8.5625 -10.859375 9.375 -10.171875 C 10.1875 -9.492188 10.59375 -8.554688 10.59375 -7.359375 C 10.59375 -6.484375 10.367188 -5.742188 9.921875 -5.140625 C 9.484375 -4.535156 8.851562 -4.101562 8.03125 -3.84375 L 10.765625 0 Z M 5.984375 -4.5625 C 7.085938 -4.5625 7.929688 -4.804688 8.515625 -5.296875 C 9.109375 -5.785156 9.40625 -6.472656 9.40625 -7.359375 C 9.40625 -8.265625 9.109375 -8.957031 8.515625 -9.4375 C 7.929688 -9.925781 7.085938 -10.171875 5.984375 -10.171875 L 3.015625 -10.171875 L 3.015625 -4.5625 Z M 5.984375 -4.5625 "/></g></g></g><g fill="#000000" fill-opacity="1"><g transform="translate(170.583176, 201.649981)"><g><path d="M 8.90625 -3.859375 L 1.875 -3.859375 C 1.9375 -2.984375 2.269531 -2.273438 2.875 -1.734375 C 3.488281 -1.191406 4.257812 -0.921875 5.1875 -0.921875 C 5.707031 -0.921875 6.1875 -1.015625 6.625 -1.203125 C 7.0625 -1.390625 7.441406 -1.664062 7.765625 -2.03125 L 8.40625 -1.296875 C 8.03125 -0.847656 7.5625 -0.503906 7 -0.265625 C 6.4375 -0.0351562 5.820312 0.078125 5.15625 0.078125 C 4.289062 0.078125 3.523438 -0.101562 2.859375 -0.46875 C 2.191406 -0.84375 1.671875 -1.351562 1.296875 -2 C 0.921875 -2.644531 0.734375 -3.378906 0.734375 -4.203125 C 0.734375 -5.023438 0.910156 -5.757812 1.265625 -6.40625 C 1.628906 -7.0625 2.125 -7.570312 2.75 -7.9375 C 3.375 -8.300781 4.070312 -8.484375 4.84375 -8.484375 C 5.625 -8.484375 6.320312 -8.300781 6.9375 -7.9375 C 7.5625 -7.570312 8.046875 -7.066406 8.390625 -6.421875 C 8.742188 -5.773438 8.921875 -5.035156 8.921875 -4.203125 Z M 4.84375 -7.5 C 4.03125 -7.5 3.347656 -7.238281 2.796875 -6.71875 C 2.253906 -6.207031 1.945312 -5.535156 1.875 -4.703125 L 7.84375 -4.703125 C 7.769531 -5.535156 7.457031 -6.207031 6.90625 -6.71875 C 6.351562 -7.238281 5.664062 -7.5 4.84375 -7.5 Z M 4.84375 -7.5 "/></g></g></g><g fill="#000000" fill-opacity="1"><g transform="translate(182.404886, 201.649981)"><g><path d="M 4.53125 -8.484375 C 5.625 -8.484375 6.460938 -8.207031 7.046875 -7.65625 C 7.640625 -7.101562 7.9375 -6.289062 7.9375 -5.21875 L 7.9375 0 L 6.84375 0 L 6.84375 -1.3125 C 6.59375 -0.875 6.21875 -0.53125 5.71875 -0.28125 C 5.21875 -0.0390625 4.628906 0.078125 3.953125 0.078125 C 3.015625 0.078125 2.265625 -0.144531 1.703125 -0.59375 C 1.148438 -1.039062 0.875 -1.632812 0.875 -2.375 C 0.875 -3.082031 1.132812 -3.65625 1.65625 -4.09375 C 2.175781 -4.53125 3 -4.75 4.125 -4.75 L 6.796875 -4.75 L 6.796875 -5.265625 C 6.796875 -5.992188 6.59375 -6.546875 6.1875 -6.921875 C 5.78125 -7.296875 5.191406 -7.484375 4.421875 -7.484375 C 3.878906 -7.484375 3.363281 -7.394531 2.875 -7.21875 C 2.382812 -7.039062 1.960938 -6.800781 1.609375 -6.5 L 1.109375 -7.34375 C 1.535156 -7.707031 2.046875 -7.988281 2.640625 -8.1875 C 3.234375 -8.382812 3.863281 -8.484375 4.53125 -8.484375 Z M 4.125 -0.8125 C 4.769531 -0.8125 5.320312 -0.957031 5.78125 -1.25 C 6.238281 -1.550781 6.578125 -1.976562 6.796875 -2.53125 L 6.796875 -3.90625 L 4.15625 -3.90625 C 2.71875 -3.90625 2 -3.40625 2 -2.40625 C 2 -1.90625 2.1875 -1.515625 2.5625 -1.234375 C 2.9375 -0.953125 3.457031 -0.8125 4.125 -0.8125 Z M 4.125 -0.8125 "/></g></g></g><g fill="#000000" fill-opacity="1"><g transform="translate(194.242617, 201.649981)"><g><path d="M 1.578125 -11.875 L 2.71875 -11.875 L 2.71875 0 L 1.578125 0 Z M 1.578125 -11.875 "/></g></g></g><g fill="#000000" fill-opacity="1"><g transform="translate(200.977579, 201.649981)"><g><path d="M 6.015625 -0.515625 C 5.804688 -0.316406 5.539062 -0.164062 5.21875 -0.0625 C 4.90625 0.03125 4.578125 0.078125 4.234375 0.078125 C 3.453125 0.078125 2.847656 -0.132812 2.421875 -0.5625 C 1.992188 -0.988281 1.78125 -1.59375 1.78125 -2.375 L 1.78125 -7.453125 L 0.265625 -7.453125 L 0.265625 -8.421875 L 1.78125 -8.421875 L 1.78125 -10.25 L 2.90625 -10.25 L 2.90625 -8.421875 L 5.46875 -8.421875 L 5.46875 -7.453125 L 2.90625 -7.453125 L 2.90625 -2.4375 C 2.90625 -1.9375 3.03125 -1.550781 3.28125 -1.28125 C 3.53125 -1.019531 3.894531 -0.890625 4.375 -0.890625 C 4.601562 -0.890625 4.828125 -0.925781 5.046875 -1 C 5.265625 -1.082031 5.453125 -1.191406 5.609375 -1.328125 Z M 6.015625 -0.515625 "/></g></g></g><g fill="#000000" fill-opacity="1"><g transform="translate(209.712041, 201.649981)"><g><path d="M 8.65625 -8.421875 L 4.453125 1.015625 C 4.109375 1.796875 3.710938 2.351562 3.265625 2.6875 C 2.816406 3.019531 2.273438 3.1875 1.640625 3.1875 C 1.242188 3.1875 0.867188 3.117188 0.515625 2.984375 C 0.160156 2.859375 -0.144531 2.671875 -0.40625 2.421875 L 0.125 1.5625 C 0.550781 1.988281 1.0625 2.203125 1.65625 2.203125 C 2.039062 2.203125 2.367188 2.09375 2.640625 1.875 C 2.921875 1.664062 3.175781 1.304688 3.40625 0.796875 L 3.78125 -0.015625 L 0.015625 -8.421875 L 1.203125 -8.421875 L 4.375 -1.265625 L 7.53125 -8.421875 Z M 8.65625 -8.421875 "/></g></g></g></svg>